<?xml version="1.0" encoding="UTF-8"?>
<svg id="Layer_2" data-name="Layer 2" xmlns="http://www.w3.org/2000/svg" viewBox="0 0 20.65 24.81">
  <defs>
    <style>
      .cls-1 {
        fill: #fff;
      }
    </style>
  </defs>
  <g id="design">
    <path class="cls-1" d="M20.35,9.61L11.04,.3s-.1-.09-.15-.13c-.02-.02-.05-.03-.08-.04-.03-.02-.06-.04-.1-.05-.03-.01-.07-.02-.1-.03-.03,0-.06-.02-.09-.03-.13-.03-.26-.03-.4,0-.03,0-.06,.02-.09,.03-.03,.01-.07,.02-.1,.03-.03,.01-.06,.03-.1,.05-.03,.01-.05,.03-.08,.04-.06,.04-.11,.08-.15,.13L.3,9.61c-.39,.39-.39,1.03,0,1.43,.39,.39,1.03,.39,1.43,0L9.32,3.44V23.8c0,.56,.45,1.01,1.01,1.01s1.01-.45,1.01-1.01V3.44l7.59,7.59c.2,.2,.46,.3,.71,.3s.52-.1,.71-.3c.39-.39,.39-1.03,0-1.43Z"/>
  </g>
</svg>