<?xml version="1.0" encoding="UTF-8"?>
<svg id="Layer_2" data-name="Layer 2" xmlns="http://www.w3.org/2000/svg" viewBox="0 0 220.86 130.6">
  <defs>
    <style>
      .cls-1 {
        fill: #fff;
      }
    </style>
  </defs>
  <g id="design">
    <g>
      <g>
        <path class="cls-1" d="M163.58,40.59c-8.31,7.35-22.43,13.35-26.39,8.86-3.97-4.49,3.72-17.76,12.03-25.11s14.11-5.99,18.08-1.5,4.6,10.41-3.71,17.75Z"/>
        <path class="cls-1" d="M137.4,17.22c-2.78,10.74-11.13,23.6-16.93,22.1-5.8-1.5-6.85-16.8-4.07-27.54,2.78-10.74,8.35-12.86,14.14-11.35,5.8,1.5,9.63,6.05,6.85,16.79Z"/>
        <path class="cls-1" d="M102.63,12.49c3.7,10.46,3.97,25.79-1.67,27.79-5.65,2-15.07-10.1-18.77-20.56-3.7-10.46-.27-15.33,5.38-17.32,5.65-2,11.37-.37,15.07,10.09Z"/>
        <path class="cls-1" d="M71.16,28.01c8.92,6.6,17.72,19.16,14.15,23.98-3.56,4.81-18.14,.06-27.06-6.55s-8.79-12.55-5.23-17.37c3.56-4.81,9.22-6.67,18.14-.06Z"/>
      </g>
      <g>
        <path class="cls-1" d="M6.81,67.6l7.36,17.97h.29l7.36-17.97h6.81v26.5h-5.34v-17.35h-.22l-6.92,17.24h-3.66l-6.92-17.31h-.22v17.42H0v-26.5H6.81Z"/>
        <path class="cls-1" d="M55.75,88.15c-1.07,2.06-2.55,3.62-4.42,4.7-1.87,1.08-3.99,1.62-6.34,1.62s-4.49-.54-6.37-1.63-3.36-2.66-4.43-4.71c-1.07-2.06-1.61-4.48-1.61-7.27s.54-5.24,1.61-7.29c1.07-2.06,2.55-3.62,4.43-4.7s4-1.62,6.37-1.62,4.47,.54,6.34,1.62c1.87,1.08,3.35,2.65,4.42,4.7,1.07,2.06,1.61,4.49,1.61,7.29s-.54,5.24-1.61,7.29Zm-4.82-12.05c-.55-1.31-1.34-2.3-2.35-2.97-1.01-.68-2.21-1.02-3.59-1.02s-2.58,.34-3.6,1.02c-1.02,.68-1.81,1.67-2.37,2.98-.56,1.31-.84,2.9-.84,4.75s.28,3.44,.84,4.75c.56,1.31,1.35,2.31,2.37,2.98,1.02,.68,2.22,1.02,3.6,1.02s2.57-.34,3.59-1.02c1.01-.68,1.8-1.67,2.35-2.97,.56-1.31,.83-2.89,.83-4.76s-.28-3.45-.83-4.76Z"/>
        <path class="cls-1" d="M83.97,88.15c-1.07,2.06-2.55,3.62-4.42,4.7-1.87,1.08-3.99,1.62-6.34,1.62s-4.49-.54-6.37-1.63-3.36-2.66-4.43-4.71c-1.07-2.06-1.61-4.48-1.61-7.27s.54-5.24,1.61-7.29c1.07-2.06,2.55-3.62,4.43-4.7s4-1.62,6.37-1.62,4.47,.54,6.34,1.62c1.87,1.08,3.35,2.65,4.42,4.7,1.07,2.06,1.61,4.49,1.61,7.29s-.54,5.24-1.61,7.29Zm-4.82-12.05c-.55-1.31-1.34-2.3-2.35-2.97-1.01-.68-2.21-1.02-3.59-1.02s-2.58,.34-3.6,1.02c-1.02,.68-1.81,1.67-2.37,2.98-.56,1.31-.84,2.9-.84,4.75s.28,3.44,.84,4.75c.56,1.31,1.35,2.31,2.37,2.98,1.02,.68,2.22,1.02,3.6,1.02s2.57-.34,3.59-1.02c1.01-.68,1.8-1.67,2.35-2.97,.56-1.31,.83-2.89,.83-4.76s-.28-3.45-.83-4.76Z"/>
        <path class="cls-1" d="M111.64,94.1h-4.76l-11.64-16.84h-.22v16.84h-5.49v-26.5h4.83l11.57,16.84h.26v-16.84h5.45v26.5Z"/>
        <path class="cls-1" d="M131.69,73.18c-.98-.71-2.19-1.07-3.61-1.07s-2.57,.34-3.61,1.03-1.84,1.68-2.42,2.99-.86,2.88-.86,4.69,.28,3.42,.85,4.74,1.37,2.32,2.41,3.01,2.26,1.03,3.66,1.03c1.25,0,2.32-.22,3.23-.67s1.61-1.08,2.1-1.91c.49-.83,.75-1.8,.78-2.91h-5.75v-4.14h11.05v3.29c0,2.28-.49,4.27-1.46,5.96-.97,1.69-2.32,2.99-4.05,3.89-1.73,.9-3.72,1.35-5.95,1.35-2.46,0-4.64-.55-6.52-1.66-1.89-1.1-3.35-2.68-4.39-4.72-1.04-2.04-1.56-4.44-1.56-7.2s.54-5.22,1.61-7.28c1.07-2.06,2.55-3.64,4.43-4.73s3.99-1.64,6.33-1.64c1.96,0,3.76,.38,5.39,1.13s2.96,1.8,4,3.15c1.04,1.35,1.68,2.89,1.92,4.62h-5.56c-.37-1.26-1.04-2.24-2.02-2.96Z"/>
        <path class="cls-1" d="M160.27,74.31c-.53-.71-1.2-1.26-2.01-1.64-.82-.38-1.74-.57-2.76-.57-1.38,0-2.58,.35-3.61,1.03-1.03,.69-1.83,1.69-2.39,3-.56,1.31-.84,2.88-.84,4.71s.28,3.46,.84,4.77c.56,1.31,1.35,2.3,2.38,2.97,1.02,.67,2.22,1.01,3.59,1.01,1.53,0,2.81-.4,3.85-1.21,1.04-.81,1.7-1.92,1.97-3.33l5.56,.04c-.21,1.67-.8,3.22-1.78,4.65-.98,1.43-2.29,2.57-3.95,3.43-1.66,.86-3.57,1.29-5.73,1.29-2.38,0-4.5-.54-6.37-1.62-1.87-1.08-3.33-2.64-4.38-4.69-1.06-2.05-1.58-4.48-1.58-7.3s.53-5.24,1.6-7.29c1.07-2.06,2.54-3.62,4.41-4.7s3.98-1.62,6.32-1.62c2.04,0,3.88,.38,5.53,1.13,1.65,.76,2.99,1.86,4.02,3.3,1.03,1.45,1.67,3.16,1.91,5.15h-5.56c-.15-.96-.48-1.8-1.01-2.52Z"/>
        <path class="cls-1" d="M170.68,67.6h5.49v10.98h11.49v-10.98h5.53v26.5h-5.53v-10.98h-11.49v10.98h-5.49v-26.5Z"/>
        <path class="cls-1" d="M202.23,67.6l6.11,11.42h.26l6.08-11.42h6.19l-9.66,17.06v9.44h-5.49v-9.44l-9.66-17.06h6.19Z"/>
      </g>
      <g>
        <path class="cls-1" d="M58.69,110.45c-.53-.71-1.2-1.26-2.01-1.64-.82-.38-1.74-.57-2.76-.57-1.38,0-2.58,.35-3.62,1.03-1.03,.69-1.83,1.69-2.39,3-.56,1.31-.84,2.88-.84,4.71s.28,3.46,.84,4.77c.56,1.31,1.36,2.3,2.38,2.97,1.02,.67,2.22,1.01,3.59,1.01,1.53,0,2.81-.4,3.85-1.21,1.04-.81,1.7-1.92,1.97-3.33l5.56,.04c-.21,1.67-.8,3.22-1.78,4.65-.98,1.43-2.29,2.57-3.95,3.43-1.66,.86-3.57,1.29-5.73,1.29-2.38,0-4.5-.54-6.37-1.62-1.87-1.08-3.33-2.64-4.38-4.69-1.06-2.05-1.58-4.48-1.58-7.3s.53-5.24,1.6-7.29c1.07-2.06,2.54-3.62,4.41-4.7s3.98-1.62,6.32-1.62c2.04,0,3.88,.38,5.53,1.13,1.65,.76,2.98,1.86,4.02,3.3,1.03,1.45,1.67,3.16,1.91,5.15h-5.56c-.15-.96-.48-1.8-1.01-2.52Z"/>
        <path class="cls-1" d="M91.76,124.28c-1.07,2.06-2.55,3.62-4.42,4.7-1.87,1.08-3.99,1.62-6.34,1.62s-4.49-.54-6.37-1.63-3.36-2.66-4.43-4.71c-1.07-2.06-1.61-4.48-1.61-7.27s.54-5.24,1.61-7.29c1.07-2.06,2.55-3.62,4.43-4.7s4-1.62,6.37-1.62,4.47,.54,6.34,1.62,3.35,2.65,4.42,4.7c1.07,2.06,1.61,4.49,1.61,7.29s-.54,5.24-1.61,7.29Zm-4.82-12.05c-.55-1.31-1.34-2.3-2.35-2.97-1.01-.68-2.21-1.02-3.59-1.02s-2.58,.34-3.6,1.02c-1.02,.68-1.81,1.67-2.37,2.98-.56,1.31-.84,2.9-.84,4.75s.28,3.44,.84,4.75c.56,1.31,1.35,2.31,2.37,2.98,1.02,.68,2.22,1.02,3.6,1.02s2.57-.34,3.59-1.02c1.01-.68,1.8-1.67,2.35-2.97s.83-2.89,.83-4.76-.28-3.45-.83-4.76Z"/>
        <path class="cls-1" d="M97.33,103.74h17.46v4.54h-11.97v6.44h10.83v4.54h-10.83v10.98h-5.49v-26.5Z"/>
        <path class="cls-1" d="M118.41,103.74h17.46v4.54h-11.97v6.44h10.83v4.54h-10.83v10.98h-5.49v-26.5Z"/>
        <path class="cls-1" d="M139.5,103.74h17.79v4.54h-12.3v6.44h11.38v4.54h-11.38v6.44h12.34v4.54h-17.83v-26.5Z"/>
        <path class="cls-1" d="M161.57,103.74h17.79v4.54h-12.3v6.44h11.38v4.54h-11.38v6.44h12.34v4.54h-17.83v-26.5Z"/>
      </g>
    </g>
  </g>
</svg>