<?xml version="1.0" encoding="UTF-8"?>
<svg id="Layer_2" data-name="Layer 2" xmlns="http://www.w3.org/2000/svg" viewBox="0 0 300 100">
  <defs>
    <style>
      .cls-1 {
        fill: #ba000c;
      }

      .cls-2 {
        fill: #fff;
      }

      .cls-3 {
        fill: none;
      }
    </style>
  </defs>
  <g id="design">
    <g>
      <g>
        <path class="cls-1" d="M35.9,28.25c.47,3.81-.58,9.01-2.63,9.27s-4.34-4.53-4.82-8.34,1.05-5.2,3.11-5.45,3.87,.72,4.34,4.53Z"/>
        <path class="cls-1" d="M24.11,31.15c2.52,2.89,4.56,7.79,3,9.15s-6.14-1.33-8.66-4.22-2.04-4.9-.48-6.26c1.56-1.36,3.61-1.57,6.13,1.33Z"/>
        <path class="cls-1" d="M15.96,40.15c3.71,.99,8.14,3.91,7.61,5.91-.53,2-5.83,2.33-9.54,1.34-3.71-.99-4.43-2.92-3.89-4.92s2.12-3.32,5.83-2.33Z"/>
        <path class="cls-1" d="M14.24,52.17c3.63-1.25,8.93-1.31,9.61,.65,.68,1.96-3.53,5.19-7.16,6.44-3.63,1.25-5.3,.06-5.98-1.9s-.1-3.94,3.53-5.19Z"/>
      </g>
      <g>
        <path class="cls-2" d="M36.87,44.13l5.06,12.35h.2l5.06-12.35h4.68v18.21h-3.67v-11.92h-.15l-4.75,11.85h-2.51l-4.75-11.9h-.15v11.97h-3.67v-18.21h4.68Z"/>
        <path class="cls-2" d="M70.49,58.25c-.74,1.41-1.75,2.49-3.04,3.23-1.29,.74-2.74,1.11-4.36,1.11s-3.09-.37-4.38-1.12c-1.29-.75-2.31-1.83-3.04-3.24-.74-1.41-1.11-3.08-1.11-5s.37-3.6,1.11-5.01c.74-1.41,1.75-2.49,3.04-3.23,1.29-.74,2.75-1.11,4.38-1.11s3.07,.37,4.36,1.11c1.29,.74,2.3,1.82,3.04,3.23,.74,1.41,1.11,3.08,1.11,5.01s-.37,3.6-1.11,5.01Zm-3.31-8.28c-.38-.9-.92-1.58-1.62-2.04s-1.52-.7-2.46-.7-1.77,.23-2.47,.7c-.7,.47-1.24,1.15-1.63,2.05-.39,.9-.58,1.99-.58,3.26s.19,2.36,.58,3.26c.39,.9,.93,1.58,1.63,2.05,.7,.47,1.52,.7,2.47,.7s1.77-.23,2.46-.7c.7-.47,1.23-1.15,1.62-2.04,.38-.9,.57-1.99,.57-3.27s-.19-2.37-.57-3.27Z"/>
        <path class="cls-2" d="M89.89,58.25c-.74,1.41-1.75,2.49-3.04,3.23-1.29,.74-2.74,1.11-4.36,1.11s-3.09-.37-4.38-1.12c-1.29-.75-2.31-1.83-3.04-3.24-.74-1.41-1.11-3.08-1.11-5s.37-3.6,1.11-5.01c.74-1.41,1.75-2.49,3.04-3.23,1.29-.74,2.75-1.11,4.38-1.11s3.07,.37,4.36,1.11c1.29,.74,2.3,1.82,3.04,3.23,.74,1.41,1.11,3.08,1.11,5.01s-.37,3.6-1.11,5.01Zm-3.31-8.28c-.38-.9-.92-1.58-1.62-2.04s-1.52-.7-2.46-.7-1.77,.23-2.47,.7c-.7,.47-1.24,1.15-1.63,2.05-.39,.9-.58,1.99-.58,3.26s.19,2.36,.58,3.26c.39,.9,.93,1.58,1.63,2.05,.7,.47,1.52,.7,2.47,.7s1.77-.23,2.46-.7c.7-.47,1.23-1.15,1.62-2.04,.38-.9,.57-1.99,.57-3.27s-.19-2.37-.57-3.27Z"/>
        <path class="cls-2" d="M108.9,62.34h-3.27l-8-11.57h-.15v11.57h-3.77v-18.21h3.32l7.95,11.57h.18v-11.57h3.75v18.21Z"/>
        <path class="cls-2" d="M122.68,47.96c-.68-.49-1.5-.74-2.48-.74s-1.76,.23-2.48,.7c-.71,.47-1.27,1.15-1.66,2.06-.39,.9-.59,1.98-.59,3.23s.2,2.35,.58,3.26c.39,.91,.94,1.6,1.65,2.07,.71,.47,1.55,.71,2.51,.71,.86,0,1.59-.15,2.22-.46s1.11-.74,1.45-1.31c.34-.57,.52-1.24,.53-2h-3.95v-2.84h7.6v2.26c0,1.57-.33,2.93-1,4.09-.67,1.16-1.6,2.05-2.79,2.67-1.19,.62-2.55,.93-4.09,.93-1.69,0-3.19-.38-4.48-1.14-1.3-.76-2.3-1.84-3.02-3.24-.72-1.4-1.08-3.05-1.08-4.95s.37-3.59,1.11-5.01c.74-1.42,1.75-2.5,3.04-3.25,1.29-.75,2.74-1.13,4.35-1.13,1.35,0,2.58,.26,3.7,.77,1.12,.52,2.04,1.24,2.75,2.16,.71,.93,1.15,1.98,1.32,3.18h-3.82c-.25-.86-.71-1.54-1.39-2.03Z"/>
        <path class="cls-2" d="M142.31,48.74c-.36-.49-.82-.87-1.38-1.13-.56-.26-1.19-.39-1.9-.39-.95,0-1.78,.24-2.48,.71-.71,.47-1.26,1.16-1.64,2.06-.39,.9-.58,1.98-.58,3.24s.19,2.38,.58,3.28c.39,.9,.93,1.58,1.63,2.04,.7,.46,1.53,.69,2.46,.69,1.05,0,1.93-.28,2.65-.83,.72-.55,1.17-1.32,1.35-2.29l3.82,.03c-.14,1.15-.55,2.21-1.22,3.19-.67,.98-1.58,1.77-2.72,2.36-1.14,.59-2.45,.89-3.94,.89-1.63,0-3.09-.37-4.38-1.11-1.28-.74-2.29-1.82-3.01-3.23-.73-1.41-1.09-3.08-1.09-5.02s.37-3.6,1.1-5.01c.73-1.41,1.74-2.49,3.03-3.23,1.29-.74,2.74-1.11,4.34-1.11,1.4,0,2.67,.26,3.8,.78,1.13,.52,2.05,1.28,2.76,2.27,.71,.99,1.15,2.17,1.31,3.54h-3.82c-.1-.66-.33-1.24-.69-1.73Z"/>
        <path class="cls-2" d="M149.47,44.13h3.77v7.54h7.9v-7.54h3.8v18.21h-3.8v-7.54h-7.9v7.54h-3.77v-18.21Z"/>
        <path class="cls-2" d="M171.15,44.13l4.2,7.85h.18l4.17-7.85h4.25l-6.64,11.72v6.49h-3.77v-6.49l-6.64-11.72h4.25Z"/>
        <path class="cls-2" d="M203.33,48.74c-.36-.49-.82-.87-1.38-1.13-.56-.26-1.19-.39-1.9-.39-.95,0-1.78,.24-2.48,.71-.71,.47-1.26,1.16-1.64,2.06-.39,.9-.58,1.98-.58,3.24s.19,2.38,.58,3.28c.39,.9,.93,1.58,1.63,2.04,.7,.46,1.53,.69,2.46,.69,1.05,0,1.93-.28,2.65-.83,.72-.55,1.17-1.32,1.35-2.29l3.82,.03c-.14,1.15-.55,2.21-1.22,3.19-.67,.98-1.58,1.77-2.72,2.36-1.14,.59-2.45,.89-3.94,.89-1.63,0-3.09-.37-4.38-1.11-1.28-.74-2.29-1.82-3.01-3.23-.73-1.41-1.09-3.08-1.09-5.02s.37-3.6,1.1-5.01c.73-1.41,1.74-2.49,3.03-3.23,1.29-.74,2.74-1.11,4.34-1.11,1.4,0,2.67,.26,3.8,.78,1.13,.52,2.05,1.28,2.76,2.27,.71,.99,1.15,2.17,1.31,3.54h-3.82c-.1-.66-.33-1.24-.69-1.73Z"/>
        <path class="cls-2" d="M226.05,58.25c-.74,1.41-1.75,2.49-3.04,3.23-1.29,.74-2.74,1.11-4.36,1.11s-3.09-.37-4.38-1.12c-1.29-.75-2.31-1.83-3.04-3.24-.74-1.41-1.11-3.08-1.11-5s.37-3.6,1.11-5.01c.74-1.41,1.75-2.49,3.04-3.23,1.29-.74,2.75-1.11,4.38-1.11s3.07,.37,4.36,1.11c1.29,.74,2.3,1.82,3.04,3.23,.74,1.41,1.11,3.08,1.11,5.01s-.37,3.6-1.11,5.01Zm-3.31-8.28c-.38-.9-.92-1.58-1.62-2.04-.7-.47-1.52-.7-2.46-.7s-1.77,.23-2.47,.7-1.24,1.15-1.63,2.05c-.39,.9-.58,1.99-.58,3.26s.19,2.36,.58,3.26c.39,.9,.93,1.58,1.63,2.05,.7,.47,1.52,.7,2.47,.7s1.77-.23,2.46-.7c.7-.47,1.23-1.15,1.62-2.04,.38-.9,.57-1.99,.57-3.27s-.19-2.37-.57-3.27Z"/>
        <path class="cls-2" d="M229.87,44.13h12v3.12h-8.22v4.43h7.44v3.12h-7.44v7.54h-3.77v-18.21Z"/>
        <path class="cls-2" d="M244.36,44.13h12v3.12h-8.22v4.43h7.44v3.12h-7.44v7.54h-3.77v-18.21Z"/>
        <path class="cls-2" d="M258.85,44.13h12.22v3.12h-8.45v4.43h7.82v3.12h-7.82v4.43h8.48v3.12h-12.25v-18.21Z"/>
        <path class="cls-2" d="M274.01,44.13h12.22v3.12h-8.45v4.43h7.82v3.12h-7.82v4.43h8.48v3.12h-12.25v-18.21Z"/>
      </g>
      <rect class="cls-3" width="300" height="100"/>
    </g>
  </g>
</svg>