<svg width="46" height="32" viewBox="0 0 46 32" fill="none" xmlns="http://www.w3.org/2000/svg">
<path d="M14.0028 25.1429H27.5016C31.2278 25.1429 34.251 22.0714 34.251 18.2857H36.5008C41.4644 18.2857 45.5 14.1857 45.5 9.14286C45.5 4.1 41.4644 0 36.5008 0H8.94069C8.00562 0 7.25334 0.764286 7.25334 1.71429V18.2857C7.25334 22.0714 10.2765 25.1429 14.0028 25.1429ZM36.5008 4.57143C38.9826 4.57143 41.0004 6.62143 41.0004 9.14286C41.0004 11.6643 38.9826 13.7143 36.5008 13.7143H34.251V4.57143H36.5008ZM39.8544 32H3.89973C0.553146 32 -0.38896 27.4286 1.3687 27.4286H42.3784C44.1361 27.4286 43.208 32 39.8544 32Z" fill="black"/>
</svg>
