<?xml version="1.0" encoding="UTF-8"?>
<svg id="Layer_2" data-name="Layer 2" xmlns="http://www.w3.org/2000/svg" xmlns:xlink="http://www.w3.org/1999/xlink" viewBox="0 0 45.25 30">
  <defs>
    <style>
      .cls-1 {
        fill: url(#linear-gradient-2);
      }

      .cls-2 {
        opacity: .05;
      }

      .cls-2, .cls-3 {
        isolation: isolate;
      }

      .cls-4 {
        fill: #0081fb;
      }

      .cls-3 {
        opacity: .07;
      }

      .cls-5 {
        fill: url(#linear-gradient);
      }
    </style>
    <linearGradient id="linear-gradient" x1="40.63" y1="1048.95" x2="12.33" y2="1048.95" gradientTransform="translate(0 1063.95) scale(1 -1)" gradientUnits="userSpaceOnUse">
      <stop offset="0" stop-color="#0081fb"/>
      <stop offset=".99" stop-color="#0064e1"/>
    </linearGradient>
    <linearGradient id="linear-gradient-2" x1="6.53" y1="1040.96" x2="6.53" y2="1060.5" xlink:href="#linear-gradient"/>
  </defs>
  <g id="design">
    <g>
      <path class="cls-4" d="M45.25,19.53l-2.16,1.64-2.15-1.5c0-.16,0-.32,0-.49,0-.16,0-.32,0-.49-.14-3.88-1.12-8.03-3.09-11.07-1.51-2.33-3.45-3.44-5.62-3.44-2.27,0-4.12,1.36-6.17,4.31-.06,.09-.13,.18-.19,.28-.04,.05-.07,.1-.11,.16-.1,.15-.2,.3-.3,.45-.89,1.38-1.81,2.98-2.81,4.75-.09,.17-.19,.33-.28,.5-.03,.04-.06,.09-.08,.13l-.21,.36-1.22,2.15c-2.86,5.07-3.59,6.23-5.02,8.12-2.51,3.33-4.65,4.6-7.48,4.6-3.34,0-5.47-1.45-6.78-3.63-1.07-1.77-1.59-4.1-1.59-6.76l4.89,.17c0,1.73,.37,3.05,.88,3.86,.65,1.04,1.6,1.45,2.6,1.45,1.27,0,2.45-.27,4.69-3.37,1.8-2.49,3.92-5.97,5.35-8.16l1.35-2.06,.29-.45,.3-.44,.49-.76c.75-1.14,1.55-2.35,2.42-3.51,.1-.14,.2-.28,.3-.41,.1-.14,.21-.28,.3-.4,.89-1.13,1.82-2.18,2.82-3.05,1.82-1.58,3.78-2.46,5.75-2.46,3.31,0,6.47,1.92,8.89,5.52,2.47,3.68,3.76,8.26,3.9,13.03,0,.16,0,.32,0,.49,0,.17,0,.32,0,.49Z"/>
      <path class="cls-5" d="M3.85,5.86C6.09,2.41,9.33,0,13.04,0c2.15,0,4.28,.63,6.51,2.45,2.44,1.99,5.04,5.26,8.28,10.65l1.16,1.93c2.81,4.67,4.4,7.07,5.34,8.2,1.2,1.45,1.95,1.84,3.05,1.84,2.77,0,3.56-2.5,3.56-5.41l4.31-.13c0,3.04-.6,5.28-1.62,7.05-.99,1.71-2.91,3.42-6.15,3.42-2.01,0-3.8-.44-5.77-2.29-1.52-1.43-3.29-3.96-4.65-6.24l-4.06-6.77c-2.04-3.4-3.9-5.93-4.98-7.07-1.16-1.23-2.6-2.71-4.98-2.71-1.93,0-3.63,1.34-5,3.41L3.85,5.86Z"/>
      <path class="cls-1" d="M13.03,4.92c-1.93,0-3.62,1.34-4.99,3.41-1.94,2.92-3.12,7.28-3.12,11.46,0,1.72,0,3.02,.49,3.82l-3.78,2.77c-1.07-1.78-1.63-4.05-1.63-6.7C0,14.84,1.33,9.75,3.85,5.86,6.09,2.41,9.35,0,13.05,0l-.02,4.92Z"/>
      <path class="cls-2" d="M20.33,10.59l-.3,.44-.29,.45c.7,1.01,1.5,2.23,2.33,3.63l.21-.36s.05-.09,.08-.13c.09-.17,.19-.33,.28-.5-.82-1.34-1.6-2.53-2.31-3.53Zm3.22-4.68c-.11,.14-.21,.28-.3,.41,.72,.9,1.45,1.91,2.21,3.05,.1-.16,.2-.3,.3-.45,.04-.06,.07-.11,.11-.16,.06-.1,.13-.19,.19-.28-.75-1.1-1.48-2.1-2.19-2.98-.1,.13-.21,.27-.3,.4Z"/>
      <path class="cls-3" d="M20.33,10.59l-.3,.44c.7,1,1.49,2.2,2.33,3.59,.09-.17,.19-.33,.28-.5-.82-1.34-1.6-2.53-2.31-3.53Zm2.91-4.27c.72,.9,1.45,1.91,2.21,3.05,.1-.16,.2-.3,.3-.45-.76-1.12-1.5-2.12-2.2-3.01-.11,.14-.21,.28-.3,.41Z"/>
    </g>
  </g>
</svg>